<?xml version="1.0" encoding="utf-8"?>
<!-- Generator: Adobe Illustrator 19.1.0, SVG Export Plug-In . SVG Version: 6.00 Build 0)  -->
<svg version="1.1" id="Layer_1" xmlns="http://www.w3.org/2000/svg" xmlns:xlink="http://www.w3.org/1999/xlink" x="0px" y="0px"
	 viewBox="0 0 200 200" style="enable-background:new 0 0 200 200;" xml:space="preserve">
<style type="text/css">
	.st0{fill:none;stroke:#B74444;stroke-width:11;stroke-miterlimit:10;}
	.st1{fill:#B74444;}
</style>
<path class="st0" d="M188,163.3L109.4,27.1c-5.2-8.9-13.6-8.9-18.7,0L12,163.3c-5.2,8.9-0.9,16.2,9.4,16.2h157.3
	C188.9,179.6,193.2,172.3,188,163.3z"/>
<path class="st1" d="M100.1,158.6H100c-5.6,0-9.8-4.2-9.8-10.3c0-5.9,4.2-10.2,9.9-10.2c5.8,0,9.9,4.3,9.9,10.2
	C110.1,154.5,105.9,158.6,100.1,158.6z"/>
<path class="st1" d="M104.8,128.6c-0.4,1.6-9.5,1.7-9.8,0l-5.8-52.9c0-3.1,2.2-5.6,10.7-5.6h0.1c8.1,0,10.6,2.5,10.6,5.6"/>
</svg>
