<?xml version="1.0" encoding="utf-8"?>
<!-- Generator: Adobe Illustrator 17.0.0, SVG Export Plug-In . SVG Version: 6.00 Build 0)  -->
<!DOCTYPE svg PUBLIC "-//W3C//DTD SVG 1.1//EN" "http://www.w3.org/Graphics/SVG/1.1/DTD/svg11.dtd">
<svg version="1.1" id="Layer_1" xmlns="http://www.w3.org/2000/svg" xmlns:xlink="http://www.w3.org/1999/xlink" x="0px" y="0px"
	 width="500px" height="500px" viewBox="0 0 500 500" enable-background="new 0 0 500 500" xml:space="preserve">
<g id="Guides" display="none">
	<rect x="277.5" y="27.5" display="inline" fill="#4BB5C1" width="250" height="250"/>
	<line display="inline" fill="none" x1="277.5" y1="277.5" x2="527.5" y2="27.5"/>
	<rect x="358.75" y="27.5" display="inline" fill="none" width="167.5" height="167.5"/>
</g>
<g>
	<path fill="#FFA131" d="M250,460c-7.5,0-16.25,0-23.75-1.25C130,448.75,52.5,371.25,42.5,275C36.25,215,53.75,156.25,95,111.25
		c40-43.75,96.25-70,156.25-70l200,5c2.5,0,3.75,1.25,3.75,3.75l5,200c0,56.25-21.25,108.75-61.25,147.5
		C358.75,437.5,306.25,460,250,460L250,460z"/>
	<path fill="#EEEEEE" d="M250,53.75l192.5,5l5,191.25c0,108.75-88.75,197.5-197.5,197.5c-7.5,0-15,0-22.5-1.25
		c-90-10-163.75-83.75-173.75-173.75C47.5,215,65,161.25,102.5,118.75C140,77.5,193.75,53.75,250,53.75 M250,27.5
		C118.75,27.5,15,141.25,30,275c11.25,102.5,92.5,183.75,195,195c8.75,1.25,17.5,1.25,25,1.25c122.5,0,221.25-98.75,221.25-221.25
		L467.5,48.75c0-8.75-7.5-16.25-16.25-16.25L250,27.5L250,27.5z"/>
</g>
</svg>
