<?xml version="1.0" encoding="utf-8"?>
<!-- Generator: Adobe Illustrator 19.1.0, SVG Export Plug-In . SVG Version: 6.00 Build 0)  -->
<svg version="1.1" id="Layer_1" xmlns="http://www.w3.org/2000/svg" xmlns:xlink="http://www.w3.org/1999/xlink" x="0px" y="0px"
	 viewBox="0 0 200 200" style="enable-background:new 0 0 200 200;" xml:space="preserve">
<style type="text/css">
	.st0{fill:#555555;}
	.st1{fill:none;stroke:#555555;stroke-width:11;stroke-miterlimit:10;}
</style>
<g>
	<circle class="st0" cx="99.6" cy="65.4" r="10.8"/>
	<polygon class="st0" points="108.4,139 108.4,91 108.4,82.6 90.8,82.6 83.2,82.6 83.2,91 90.8,91 90.8,139 83.2,139 83.2,147.4 
		90.8,147.4 108.4,147.4 115.6,147.4 115.6,139 	"/>
</g>
<circle class="st1" cx="100" cy="100" r="88.7"/>
<g>
	<path class="st0" d="M93.1,60.9v32.1l-32.1,0c-3.8,0-6.9,3.1-6.9,6.9c0,3.8,3.1,6.9,6.9,6.9l32.1,0l0,32.1c0,3.8,3.1,6.9,6.9,6.9
		c3.8,0,6.9-3.1,6.9-6.9l0-32.1h32.1c3.8,0,6.9-3.1,6.9-6.9c0-3.8-3.1-6.9-6.9-6.9h-32.1V60.9c0-3.8-3.1-6.9-6.9-6.9
		C96.2,54,93.1,57.1,93.1,60.9z"/>
</g>
</svg>
