<?xml version="1.0" encoding="utf-8"?>
<!-- Generator: Adobe Illustrator 17.0.0, SVG Export Plug-In . SVG Version: 6.00 Build 0)  -->
<!DOCTYPE svg PUBLIC "-//W3C//DTD SVG 1.1//EN" "http://www.w3.org/Graphics/SVG/1.1/DTD/svg11.dtd">
<svg version="1.1" id="Layer_1" xmlns="http://www.w3.org/2000/svg" xmlns:xlink="http://www.w3.org/1999/xlink" x="0px" y="0px"
	 width="40px" height="40px" viewBox="0 0 40 40" enable-background="new 0 0 40 40" xml:space="preserve">
<g id="XMLID_2_">
	<g>
		<path fill="#EDF7F2" d="M-347.75,389.625c0.125,0,0.125,0.125,0.125,0.25l-16.125,32.25c-0.125,0.25-0.25,0.25-0.375,0l-4.75-10.5
			c-0.125-0.25-0.375-0.625-0.75-0.75l-10.375-4.75c-0.25-0.125-0.25-0.25,0-0.375l32.125-16.125
			C-347.75,389.625-347.75,389.625-347.75,389.625z"/>
	</g>
	<g>
		<path fill="none" stroke="#EDF7F2" stroke-width="0.633" d="M-347.75,389.625h-0.125L-380,405.75c-0.25,0.125-0.25,0.25,0,0.375
			l10.375,4.75c0.25,0.125,0.625,0.375,0.75,0.75l4.75,10.5c0.125,0.25,0.25,0.25,0.375,0l16.125-32.25
			C-347.5,389.625-347.625,389.625-347.75,389.625z"/>
	</g>
</g>
<polygon fill="none" stroke="#000000" stroke-width="2" stroke-miterlimit="10" points="33.339,5.712 20.051,32.288 16.879,22.7 
	6.661,19.103 "/>
</svg>
