<?xml version="1.0" encoding="utf-8"?>
<!-- Generator: Adobe Illustrator 17.0.0, SVG Export Plug-In . SVG Version: 6.00 Build 0)  -->
<!DOCTYPE svg PUBLIC "-//W3C//DTD SVG 1.1//EN" "http://www.w3.org/Graphics/SVG/1.1/DTD/svg11.dtd">
<svg version="1.1" id="Layer_1" xmlns="http://www.w3.org/2000/svg" xmlns:xlink="http://www.w3.org/1999/xlink" x="0px" y="0px"
	 width="40px" height="40px" viewBox="0 0 40 40" enable-background="new 0 0 40 40" xml:space="preserve">
<g>
	<path d="M15.407,26.28v4.753c0,0.976-0.79,1.766-1.765,1.766c-0.975,0-1.765-0.79-1.765-1.766V26.28
		c-1.558-0.685-2.649-2.236-2.649-4.042c0-1.809,1.092-3.36,2.649-4.042V8.967c0-0.976,0.79-1.767,1.765-1.767
		c0.975,0,1.765,0.791,1.765,1.767v9.229c1.559,0.681,2.649,2.233,2.649,4.042C18.056,24.045,16.966,25.595,15.407,26.28z
		 M28.123,19.368v11.666c0,0.976-0.79,1.766-1.765,1.766c-0.975,0-1.765-0.79-1.765-1.766V19.368
		c-1.559-0.684-2.649-2.236-2.649-4.042c0-1.81,1.09-3.36,2.649-4.042V8.967c0-0.976,0.79-1.767,1.765-1.767
		c0.975,0,1.765,0.791,1.765,1.767v2.317c1.559,0.681,2.649,2.232,2.649,4.042C30.772,17.132,29.683,18.683,28.123,19.368z
		 M13.642,20.034c-1.218,0-2.206,0.988-2.206,2.207c0,1.217,0.988,2.206,2.206,2.206c1.219,0,2.208-0.989,2.208-2.206
		C15.85,21.022,14.861,20.034,13.642,20.034z M26.357,13.118c-1.218,0-2.207,0.988-2.207,2.208c0,1.22,0.989,2.208,2.207,2.208
		c1.22,0,2.207-0.988,2.207-2.208C28.564,14.107,27.576,13.118,26.357,13.118z"/>
</g>
</svg>
