<?xml version="1.0" encoding="utf-8"?>
<!-- Generator: Adobe Illustrator 18.1.1, SVG Export Plug-In . SVG Version: 6.00 Build 0)  -->
<!DOCTYPE svg PUBLIC "-//W3C//DTD SVG 1.1//EN" "http://www.w3.org/Graphics/SVG/1.1/DTD/svg11.dtd">
<svg version="1.1" xmlns="http://www.w3.org/2000/svg" xmlns:xlink="http://www.w3.org/1999/xlink" x="0px" y="0px"
	 viewBox="0 0 36 36" enable-background="new 0 0 36 36" xml:space="preserve">
<g id="Guides" display="none">
	<rect x="20" y="2" display="inline" fill="#4BB5C1" width="18" height="18"/>
	<line display="inline" fill="none" x1="20" y1="20" x2="38" y2="2"/>
	<rect x="25.8" y="2" display="inline" fill="none" width="12.1" height="12.1"/>
</g>
<g id="Layer_1">
	<g>
		<path fill="#4BB5C1" d="M18,33.7c-0.6,0-1.2,0-1.8-0.1C9,32.8,3.2,27,2.4,19.8c-0.5-4.5,0.9-8.9,3.9-12.2c3-3.3,7.2-5.2,11.7-5.2
			l15.3,0.2c0.1,0,0.1,0.1,0.1,0.1L33.7,18c0,4.2-1.6,8.1-4.6,11.1C26.1,32,22.2,33.7,18,33.7C18,33.7,18,33.7,18,33.7z"/>
		<path fill="#EEEEEE" d="M18,3.3l14.5,0.2L32.7,18c0,8.1-6.6,14.7-14.7,14.7c-0.6,0-1.1,0-1.7-0.1C9.6,31.8,4.2,26.4,3.4,19.7
			C3,15.4,4.2,11.4,7.1,8.2C9.8,5.1,13.8,3.3,18,3.3 M18,1.3C8.2,1.3,0.3,9.8,1.4,19.9c0.8,7.6,7,13.8,14.7,14.7
			c0.6,0.1,1.3,0.1,1.9,0.1c9.2,0,16.7-7.5,16.7-16.7L34.4,2.7c0-0.6-0.5-1.1-1.1-1.1L18,1.3L18,1.3z"/>
	</g>
</g>
</svg>
