<?xml version="1.0" encoding="utf-8"?>
<!-- Generator: Adobe Illustrator 18.1.1, SVG Export Plug-In . SVG Version: 6.00 Build 0)  -->
<!DOCTYPE svg PUBLIC "-//W3C//DTD SVG 1.1//EN" "http://www.w3.org/Graphics/SVG/1.1/DTD/svg11.dtd">
<svg version="1.1" xmlns="http://www.w3.org/2000/svg" xmlns:xlink="http://www.w3.org/1999/xlink" x="0px" y="0px"
	 viewBox="0 0 36 36" enable-background="new 0 0 36 36" xml:space="preserve">
<g id="Guides" display="none">
	<rect x="20" y="2" display="inline" fill="#4BB5C1" width="18" height="18"/>
	<line display="inline" fill="none" x1="20" y1="20" x2="38" y2="2"/>
	<rect x="25.8" y="2" display="inline" fill="none" width="12.1" height="12.1"/>
</g>
<g id="Layer_1">
	<g>
		<path fill="#4BB5C1" d="M18,34.2c-0.6,0-1.2,0-1.8-0.1C8.7,33.2,2.8,27.3,1.9,19.8c-0.5-4.7,0.9-9.1,4-12.6C9,3.8,13.4,1.8,18,1.8
			l15.3,0.2c0.3,0,0.6,0.3,0.6,0.6L34.2,18c0,4.3-1.7,8.4-4.7,11.4C26.4,32.5,22.3,34.2,18,34.2C18,34.2,18,34.2,18,34.2z"/>
		<path fill="#EEEEEE" d="M18,2.4l15.3,0.2c0.1,0,0.1,0,0.1,0.1L33.6,18c0,8.6-7,15.6-15.6,15.6c-0.6,0-1.2,0-1.8-0.1
			C9,32.7,3.3,27,2.5,19.8C2,15.3,3.3,10.9,6.3,7.6C9.3,4.3,13.6,2.4,18,2.4 M18,1.3C8.2,1.3,0.3,9.8,1.4,19.9
			c0.8,7.6,7,13.8,14.7,14.7c0.6,0.1,1.3,0.1,1.9,0.1c9.2,0,16.7-7.5,16.7-16.7L34.4,2.7c0-0.6-0.5-1.1-1.1-1.1L18,1.3L18,1.3z"/>
	</g>
</g>
</svg>
