<?xml version="1.0" encoding="utf-8"?>
<!-- Generator: Adobe Illustrator 18.1.1, SVG Export Plug-In . SVG Version: 6.00 Build 0)  -->
<!DOCTYPE svg PUBLIC "-//W3C//DTD SVG 1.1//EN" "http://www.w3.org/Graphics/SVG/1.1/DTD/svg11.dtd">
<svg version="1.1" id="Layer_1" xmlns="http://www.w3.org/2000/svg" xmlns:xlink="http://www.w3.org/1999/xlink" x="0px" y="0px"
	 viewBox="0 0 40 40" enable-background="new 0 0 40 40" xml:space="preserve">
<g id="Guides" display="none">
	<rect x="22.2" y="2.2" display="inline" fill="#4BB5C1" width="20" height="20"/>
	<line display="inline" fill="none" x1="22.2" y1="22.2" x2="42.2" y2="2.2"/>
	<rect x="28.7" y="2.2" display="inline" fill="none" width="13.4" height="13.4"/>
</g>
<g>
	<path fill="#4BB5C1" d="M20,38.1C10,38.1,1.9,30,1.9,20S10,1.9,20,1.9S38.1,10,38.1,20S30,38.1,20,38.1z"/>
	<g>
		<path fill="#EEEEEE" d="M20,2.4c9.7,0,17.6,7.9,17.6,17.6S29.7,37.6,20,37.6S2.4,29.7,2.4,20S10.3,2.4,20,2.4 M20,1.4
			C9.7,1.4,1.4,9.8,1.4,20S9.7,38.6,20,38.6S38.6,30.2,38.6,20S30.2,1.4,20,1.4L20,1.4z"/>
	</g>
</g>
</svg>
