<?xml version="1.0" encoding="utf-8"?>
<!-- Generator: Adobe Illustrator 18.1.1, SVG Export Plug-In . SVG Version: 6.00 Build 0)  -->
<!DOCTYPE svg PUBLIC "-//W3C//DTD SVG 1.1//EN" "http://www.w3.org/Graphics/SVG/1.1/DTD/svg11.dtd">
<svg version="1.1" id="Layer_1" xmlns="http://www.w3.org/2000/svg" xmlns:xlink="http://www.w3.org/1999/xlink" x="0px" y="0px"
	 viewBox="0 0 40 40" enable-background="new 0 0 40 40" xml:space="preserve">
<g>
	<path fill="#4BB5C1" d="M20,37.8c-9.8,0-17.8-8-17.8-17.8c0-9.8,8-17.8,17.8-17.8c9.8,0,17.8,8,17.8,17.8
		C37.8,29.8,29.8,37.8,20,37.8z"/>
	<path d="M20,2.5c9.6,0,17.5,7.9,17.5,17.5S29.6,37.5,20,37.5S2.5,29.6,2.5,20S10.4,2.5,20,2.5 M20,2C10.1,2,2,10.1,2,20
		s8.1,18,18,18s18-8.1,18-18S29.9,2,20,2L20,2z"/>
</g>
</svg>
