<?xml version="1.0" encoding="utf-8"?>
<!-- Generator: Adobe Illustrator 18.1.1, SVG Export Plug-In . SVG Version: 6.00 Build 0)  -->
<!DOCTYPE svg PUBLIC "-//W3C//DTD SVG 1.1//EN" "http://www.w3.org/Graphics/SVG/1.1/DTD/svg11.dtd">
<svg version="1.1" id="Layer_1" xmlns="http://www.w3.org/2000/svg" xmlns:xlink="http://www.w3.org/1999/xlink" x="0px" y="0px"
	 viewBox="0 0 229.7 148.4" enable-background="new 0 0 229.7 148.4" xml:space="preserve">
<g>
	<path fill="#C8DE9B" d="M0,133.3v-17.8h3.1v17.8c0,0.8,0.1,1.5,0.2,1.9s0.4,0.8,0.6,1c0.2,0.2,0.5,0.3,0.8,0.4c0.3,0,0.5,0,0.7,0
		c0.2,0,0.5,0,0.7,0c0.3,0,0.5-0.2,0.8-0.4c0.2-0.2,0.4-0.5,0.6-1c0.2-0.5,0.2-1.1,0.2-1.9v-17.8h3.1v17.8c0,2-0.4,3.5-1.3,4.6
		c-0.3,0.4-0.8,0.8-1.5,1.2s-1.5,0.6-2.6,0.6c-1.1,0-2-0.2-2.6-0.6s-1.2-0.8-1.5-1.2C0.4,136.8,0,135.3,0,133.3z"/>
	<path fill="#C8DE9B" d="M13.3,139.7v-24.2h2.6l5.9,14.6v-14.6h3.1v24.2h-2.6l-5.9-14.6v14.6H13.3z"/>
	<path fill="#C8DE9B" d="M27.2,132.8v-10.4c0-2.1,0.5-3.8,1.4-5c0.2-0.2,0.4-0.4,0.6-0.6c0.3-0.2,0.6-0.4,0.9-0.6
		c0.4-0.2,0.8-0.3,1.2-0.5c0.5-0.1,1-0.2,1.6-0.2c1.2,0,2.1,0.2,2.8,0.6c0.7,0.4,1.2,0.8,1.6,1.3c0.9,1.2,1.4,2.9,1.4,5v10.4
		c0,2.1-0.5,3.8-1.4,5c-0.4,0.4-0.9,0.9-1.6,1.3c-0.7,0.4-1.6,0.6-2.8,0.6c-1.2,0-2.1-0.2-2.8-0.6s-1.2-0.8-1.6-1.3
		C27.7,136.6,27.2,135,27.2,132.8z M30.3,132.8c0,1,0.1,1.7,0.3,2.2c0.2,0.5,0.4,0.9,0.7,1.1c0.3,0.2,0.6,0.4,0.9,0.4
		s0.6,0.1,0.8,0.1c0.2,0,0.5,0,0.8-0.1c0.3,0,0.6-0.2,0.9-0.4c0.3-0.2,0.5-0.6,0.7-1.1s0.3-1.3,0.3-2.2v-10.4c0-0.9-0.1-1.7-0.3-2.2
		s-0.4-0.9-0.7-1.1c-0.3-0.2-0.6-0.4-0.9-0.4c-0.3,0-0.6-0.1-0.8-0.1c-0.2,0-0.5,0-0.8,0.1c-0.3,0-0.6,0.2-0.9,0.4
		c-0.3,0.2-0.5,0.6-0.7,1.1c-0.2,0.5-0.3,1.2-0.3,2.2V132.8z"/>
	<path fill="#C8DE9B" d="M40.5,139.7v-24.2h3.1v10.5h4.6v-10.5h3.1v24.2h-3.1v-10.6h-4.6v10.6H40.5z"/>
	<path fill="#C8DE9B" d="M53.9,139.7v-24.2h4.8c2.1,0,3.6,0.6,4.7,1.9c1,1.2,1.4,2.9,1.4,5.1v10.2c0,2.2-0.5,3.9-1.4,5.1
		c-1,1.3-2.6,1.9-4.7,1.9H53.9z M57,136.7h1.7c0.4,0,0.8,0,1.1-0.1c0.4-0.1,0.7-0.2,1-0.5s0.5-0.7,0.7-1.2c0.2-0.5,0.3-1.2,0.3-2.1
		v-10.2c0-0.9-0.1-1.6-0.3-2.1s-0.4-0.9-0.7-1.2c-0.3-0.3-0.6-0.4-1-0.5c-0.4-0.1-0.7-0.1-1.1-0.1H57V136.7z"/>
	<path fill="#C8DE9B" d="M66.8,139.7l5.6-24.2h2.3l5.6,24.2h-3.1l-1.6-6.7h-4.2l-1.6,6.7H66.8z M72.2,129.9h2.8l-1.4-6L72.2,129.9z"
		/>
	<path fill="#C8DE9B" d="M91.2,139.7l5.6-24.2h2.3l5.6,24.2h-3.1l-1.6-6.7h-4.2l-1.6,6.7H91.2z M96.6,129.9h2.8l-1.4-6L96.6,129.9z"
		/>
	<path fill="#C8DE9B" d="M106.5,139.7v-24.2h3.1v24.2H106.5z"/>
	<path fill="#C8DE9B" d="M112.2,130.9L112.2,130.9l0-15.4h3.1v10.6l6.9-10.6h3.7l-7.4,11.3l7.1,12.9h-3.6l-5.5-9.9l-1.3,2v7.9h-3.1
		L112.2,130.9L112.2,130.9z"/>
	<path fill="#C8DE9B" d="M126.9,139.7l5.6-24.2h2.3l5.6,24.2h-3.1l-1.6-6.7h-4.2l-1.6,6.7H126.9z M132.3,129.9h2.8l-1.4-6
		L132.3,129.9z"/>
	<path fill="#C8DE9B" d="M141.2,118.6v-3.1h13.7v3.1h-5.3v21.1h-3.1v-21.1H141.2z"/>
	<path fill="#C8DE9B" d="M156.4,139.7l5.6-24.2h2.3l5.6,24.2h-3.1l-1.6-6.7H161l-1.6,6.7H156.4z M161.8,129.9h2.8l-1.4-6
		L161.8,129.9z"/>
	<path fill="#C8DE9B" d="M170.7,133.3v-17.8h3.1v17.8c0,0.8,0.1,1.5,0.2,1.9s0.4,0.8,0.6,1c0.2,0.2,0.5,0.3,0.8,0.4s0.5,0,0.7,0
		s0.5,0,0.7,0c0.3,0,0.5-0.2,0.8-0.4c0.2-0.2,0.4-0.5,0.6-1c0.2-0.5,0.2-1.1,0.2-1.9v-17.8h3.1v17.8c0,2-0.4,3.5-1.3,4.6
		c-0.3,0.4-0.8,0.8-1.5,1.2c-0.7,0.4-1.5,0.6-2.6,0.6s-2-0.2-2.6-0.6c-0.7-0.4-1.2-0.8-1.5-1.2C171.1,136.8,170.7,135.3,170.7,133.3
		z"/>
	<path fill="#C8DE9B" d="M184,139.7v-24.2h3.1v21.1h7.4v3.1H184z"/>
	<path fill="#C8DE9B" d="M195.7,133.3v-17.8h3.1v17.8c0,0.8,0.1,1.5,0.2,1.9s0.4,0.8,0.6,1c0.2,0.2,0.5,0.3,0.8,0.4s0.5,0,0.7,0
		s0.5,0,0.7,0c0.3,0,0.5-0.2,0.8-0.4c0.2-0.2,0.4-0.5,0.6-1c0.2-0.5,0.2-1.1,0.2-1.9v-17.8h3.1v17.8c0,2-0.4,3.5-1.3,4.6
		c-0.3,0.4-0.8,0.8-1.5,1.2c-0.7,0.4-1.5,0.6-2.6,0.6s-2-0.2-2.6-0.6c-0.7-0.4-1.2-0.8-1.5-1.2C196.1,136.8,195.7,135.3,195.7,133.3
		z"/>
	<path fill="#C8DE9B" d="M208.9,118.6v-3.1h13.7v3.1h-5.3v21.1h-3.1v-21.1H208.9z"/>
</g>
<g>
	<g>
		<path fill="#FFFFFF" d="M0,102.5V91.4V15.5h16.8c7.4,0,12.8,2.2,16.2,6.6C36.4,26,38.1,32,38.1,40c0,7.9-1.7,13.8-5.1,17.9
			c-0.2,0.2-0.5,0.6-0.9,1c0.5,0.5,0.8,0.9,0.9,1.2c3.4,4.1,5.1,10,5.1,17.9c0,8-1.7,13.9-5.1,17.8c-3.5,4.4-9,6.6-16.2,6.6h-5.6H0z
			 M11.1,53.4h5.6c2.5,0,4.4-0.3,5.4-0.9s1.8-1.2,2.2-1.7c1.7-2,2.5-5.6,2.5-10.8c0-3.1-0.3-5.5-0.8-7.2s-1.2-3.1-2.1-4
			c-0.9-0.9-2-1.5-3.2-1.7c-1.2-0.2-2.6-0.3-4-0.3h-5.6V53.4z M11.1,91.4h5.6c1.4,0,2.8-0.1,4-0.3c1.2-0.2,2.3-0.8,3.2-1.7
			c0.9-0.9,1.6-2.2,2.1-4s0.8-4.2,0.8-7.3c0-3.1-0.3-5.6-0.8-7.4c-0.6-1.8-1.3-3.2-2.2-4.1c-0.9-0.9-2-1.5-3.2-1.7s-2.5-0.3-3.9-0.3
			h-5.6V91.4z"/>
		<path fill="#FFFFFF" d="M44.4,79.3V15.4h11.1v63.8c0,3,0.3,5.3,0.9,6.9c0.6,1.6,1.3,2.8,2.2,3.6c0.9,0.7,1.8,1.2,2.7,1.3
			c0.9,0.1,1.8,0.2,2.6,0.2s1.7-0.1,2.6-0.2c1-0.1,1.9-0.5,2.7-1.3c0.9-0.7,1.6-1.9,2.2-3.6s0.9-4,0.9-6.9V15.4h11.1v63.8
			c0,7.2-1.6,12.8-4.7,16.6c-1.2,1.6-3,3.1-5.3,4.4c-2.4,1.4-5.5,2.1-9.4,2.1s-7.1-0.7-9.4-2.1c-2.4-1.4-4.1-2.9-5.3-4.4
			C45.9,92,44.4,86.5,44.4,79.3z"/>
		<path fill="#FFFFFF" d="M92.1,77.7v-5.5h11.1v5.5c0,5.1,0.9,8.8,2.7,10.9c0.4,0.5,1.1,1.1,2.1,1.7c1,0.6,2.6,0.9,4.8,0.9
			c2.1,0,3.8-0.5,5.1-1.4c1.3-0.9,2.2-2,2.9-3.3c0.7-1.3,1.1-2.7,1.3-4.2c0.2-1.5,0.3-2.9,0.3-4.1c0-2-0.3-3.8-0.9-5.2
			c-0.6-1.4-1.4-2.6-2.5-3.6s-2.2-1.8-3.4-2.5c-1.2-0.7-2.5-1.3-3.8-1.8l-2.1-1c-1.3-0.5-2.9-1.3-4.8-2.3c-1.9-1-3.8-2.4-5.7-4.2
			c-4.7-4.6-7.1-10.4-7.1-17.5c0-3.7,0.5-7.1,1.5-10.1c1-3.1,2.4-5.7,4.2-7.9s4.1-3.9,6.6-5.1c2.6-1.2,5.4-1.8,8.4-1.8
			c4.3,0,7.6,0.7,10.1,2.2c2.5,1.5,4.4,3,5.6,4.6c3.4,4.3,5.1,10.4,5.1,18.1v5.5h-11.2v-5.5c0-3.4-0.3-6-1-7.9
			c-0.7-1.9-1.5-3.3-2.5-4.1s-2.1-1.3-3.2-1.5c-1.1-0.2-2-0.2-2.9-0.2c-2.3,0-4,0.5-5.3,1.6c-1.2,1.1-2.2,2.4-2.9,4
			c-0.7,1.5-1.1,3.1-1.2,4.6c-0.2,1.5-0.2,2.7-0.2,3.5c0,2,0.3,3.8,0.9,5.2c0.6,1.5,1.4,2.7,2.5,3.8c1,1.1,2.2,2,3.5,2.7
			c1.3,0.8,2.6,1.4,4.1,1.9l1.9,0.9c1.1,0.5,2.6,1.1,4.6,2c1.9,0.9,3.8,2.3,5.7,4.1c4.9,4.5,7.3,10.3,7.3,17.4
			c0,6.7-1.7,12.2-5,16.7c-3.8,5-9.1,7.4-15.8,7.4c-6.9,0-12.1-2.2-15.7-6.7C93.8,91.5,92.1,85.5,92.1,77.7z"/>
		<path fill="#FFFFFF" d="M139,77.7v-5.5h11.1v5.5c0,5.1,0.9,8.8,2.7,10.9c0.4,0.5,1.1,1.1,2.1,1.7c1,0.6,2.6,0.9,4.8,0.9
			c2.1,0,3.8-0.5,5.1-1.4c1.3-0.9,2.2-2,2.9-3.3c0.7-1.3,1.1-2.7,1.3-4.2c0.2-1.5,0.3-2.9,0.3-4.1c0-2-0.3-3.8-0.9-5.2
			c-0.6-1.4-1.4-2.6-2.5-3.6s-2.2-1.8-3.4-2.5c-1.2-0.7-2.5-1.3-3.8-1.8l-2.1-1c-1.3-0.5-2.9-1.3-4.8-2.3c-1.9-1-3.8-2.4-5.7-4.2
			c-4.7-4.6-7.1-10.4-7.1-17.5c0-3.7,0.5-7.1,1.5-10.1c1-3.1,2.4-5.7,4.2-7.9s4.1-3.9,6.6-5.1c2.6-1.2,5.4-1.8,8.4-1.8
			c4.3,0,7.6,0.7,10.1,2.2c2.5,1.5,4.4,3,5.6,4.6c3.4,4.3,5.1,10.4,5.1,18.1v5.5h-11.2v-5.5c0-3.4-0.3-6-1-7.9
			c-0.7-1.9-1.5-3.3-2.5-4.1s-2.1-1.3-3.2-1.5c-1.1-0.2-2-0.2-2.9-0.2c-2.3,0-4,0.5-5.3,1.6c-1.2,1.1-2.2,2.4-2.9,4
			c-0.7,1.5-1.1,3.1-1.2,4.6c-0.2,1.5-0.2,2.7-0.2,3.5c0,2,0.3,3.8,0.9,5.2c0.6,1.5,1.4,2.7,2.5,3.8c1,1.1,2.2,2,3.5,2.7
			c1.3,0.8,2.6,1.4,4.1,1.9l1.9,0.9c1.1,0.5,2.6,1.1,4.6,2c1.9,0.9,3.8,2.3,5.7,4.1c4.9,4.5,7.3,10.3,7.3,17.4
			c0,6.7-1.7,12.2-5,16.7c-3.8,5-9.1,7.4-15.8,7.4c-6.9,0-12.1-2.2-15.7-6.7C140.7,91.5,139,85.5,139,77.7z"/>
		<path fill="#FFFFFF" d="M185.8,102.5V15.5h36v11.1h-24.9v26.7h24.9v11.1h-24.9v26.9h24.9v11.1H185.8z"/>
	</g>
</g>
</svg>
